<svg xmlns="http://www.w3.org/2000/svg" viewBox="0 0 64 64">
  <defs>
    <linearGradient id="g" x1="0" y1="0" x2="1" y2="1">
      <stop offset="0" stop-color="#10b981"/>
      <stop offset="1" stop-color="#0ea5e9"/>
    </linearGradient>
  </defs>
  <rect width="64" height="64" rx="12" fill="#ffffff"/>
  <g transform="translate(8,8)">
    <path d="M24 12c-3.5-6-12-6-15.5 0-2.8 4.7-1.3 10.5 2.5 14.3L24 36l13-9.7c3.8-3.8 5.3-9.6 2.5-14.3-3.5-6-12-6-15.5 0z" fill="url(#g)"/>
    <rect x="20" y="6" width="6" height="6" rx="1.5" fill="#16a34a"/>
    <rect x="22" y="4" width="2" height="10" rx="1" fill="#16a34a"/>
    <g transform="translate(28,18) rotate(10)">
      <rect x="0" y="0" width="2" height="12" rx="1" fill="#064e3b"/>
      <rect x="4" y="0" width="2" height="12" rx="1" fill="#064e3b"/>
      <rect x="8" y="0" width="2" height="12" rx="1" fill="#064e3b"/>
    </g>
    <path d="M10 24h10" stroke="#ffffff" stroke-width="2" stroke-linecap="round"/>
    <path d="M20 24h6" stroke="#ffffff" stroke-width="2" stroke-linecap="round"/>
  </g>
</svg>